Coordinates
version=1
nRows=8
nColumns=63
inDegrees=yes

Units are S.I. units (second, meters, Newtons, ...)
If the header above contains a line with 'inDegrees', this indicates whether rotational values are in degrees (yes) or radians (no).

endheader
time	pelvis_tilt	pelvis_list	pelvis_rotation	pelvis_tx	pelvis_ty	pelvis_tz	hip_flexion_r	hip_adduction_r	hip_rotation_r	knee_angle_r	knee_angle_r_beta	ankle_angle_r	subtalar_angle_r	mtp_angle_r	hip_flexion_l	hip_adduction_l	hip_rotation_l	knee_angle_l	knee_angle_l_beta	ankle_angle_l	subtalar_angle_l	mtp_angle_l	L5_S1_Flex_Ext	L5_S1_Lat_Bending	L5_S1_axial_rotation	L4_L5_Flex_Ext	L4_L5_Lat_Bending	L4_L5_axial_rotation	L3_L4_Flex_Ext	L3_L4_Lat_Bending	L3_L4_axial_rotation	L2_L3_Flex_Ext	L2_L3_Lat_Bending	L2_L3_axial_rotation	L1_L2_Flex_Ext	L1_L2_Lat_Bending	L1_L2_axial_rotation	L1_T12_Flex_Ext	L1_T12_Lat_Bending	L1_T12_axial_rotation	Abs_r3	Abs_r2	Abs_r1	Abs_t1	Abs_t2	neck_flexion	neck_bending	neck_rotation	arm_flex_r	arm_add_r	arm_rot_r	elbow_flex_r	pro_sup_r	wrist_flex_r	wrist_dev_r	arm_flex_l	arm_add_l	arm_rot_l	elbow_flex_l	pro_sup_l	wrist_flex_l	wrist_dev_l
      0.03333333	     -1.84740184	      0.99717409	    -29.87226455	     -1.72164292	      0.84160673	      0.30368806	     -7.92993145	     -6.95531209	     14.67668711	     24.34998493	      0.42498741	     14.44950137	     -3.46977703	      0.00000000	     22.26898716	    -11.73712029	    -20.51651667	     21.23518552	      0.37062390	      9.26155771	     -9.38037271	      0.00000000	     -0.03170183	     -0.39037018	      5.84056958	     -0.05887347	     -0.51919233	      6.20560518	     -0.05208294	     -0.94914605	      6.20560518	     -0.03623202	     -0.94914605	      5.11049838	     -0.02943832	     -0.79604286	      4.74546278	     -0.01811443	     -0.60468340	      4.38042718	     -0.22644301	     -4.41594551	     32.48349583	      0.00000000	      0.00000000	     -0.00000000	      0.00000000	      0.00000000	     -7.34944947	     -3.48597579	     -0.73135925	     25.61816450	     26.84148702	      0.00000000	      5.82086448	    -12.87684886	      6.04300497	    -35.89220173	     34.12944251	     24.15633638	      0.00000000	      5.82086448
      0.06666667	     -1.86088922	      0.98897113	    -29.88917064	     -1.72161250	      0.84159382	      0.30373321	     -7.92718770	     -6.95610991	     14.64906426	     24.33450549	      0.42471724	     14.47050383	     -3.33182933	      0.00000000	     22.26758118	    -11.72352980	    -20.37772877	     21.20830302	      0.37015472	      9.20156640	     -9.63888934	      0.00000000	     -0.02948768	     -0.38926682	      5.84003668	     -0.05476157	     -0.51772488	      6.20503897	     -0.04844531	     -0.94646336	      6.20503897	     -0.03370147	     -0.94646336	      5.11003210	     -0.02738226	     -0.79379291	      4.74502980	     -0.01684926	     -0.60297431	      4.38002751	     -0.21062753	     -4.40346417	     32.48053201	      0.00000000	      0.00000000	     -0.00000000	      0.00000000	      0.00000000	     -7.41228162	     -3.46194815	     -1.00043941	     25.77924302	     27.82099522	      0.00000000	      5.73718612	    -12.90940949	      6.06297537	    -36.12135962	     34.15375637	     25.43613522	      0.00000000	      5.73718612
      0.10000000	     -1.85188006	      0.96188473	    -29.94430790	     -1.72164296	      0.84162487	      0.30372133	     -7.94847125	     -6.92040866	     14.85492537	     24.30822343	      0.42425853	     14.39477356	     -3.56978326	      0.00000000	     22.21201596	    -11.79560447	    -20.61509298	     21.20345113	      0.37007004	      9.28819813	     -9.32461232	      0.00000000	     -0.03148299	     -0.38544161	      5.85644571	     -0.05846707	     -0.51263734	      6.22247357	     -0.05172341	     -0.93716273	      6.22247357	     -0.03598191	     -0.93716273	      5.12439000	     -0.02923511	     -0.78599253	      4.75836214	     -0.01798938	     -0.59704905	      4.39233428	     -0.22487987	     -4.36019256	     32.57179410	      0.00000000	      0.00000000	     -0.00000000	      0.00000000	      0.00000000	     -7.44338536	     -3.47357233	     -1.21401310	     25.81542394	     28.39446662	      0.00000000	      5.67867329	    -12.88658242	      6.10514542	    -36.23954344	     34.14187055	     26.23743682	      0.00000000	      5.67867329
      0.13333333	     -1.85247366	      0.98504158	    -29.87327450	     -1.72164516	      0.84159121	      0.30366072	     -7.93626203	     -6.94597333	     14.69118579	     24.33369904	      0.42470317	     14.46185665	     -3.40476889	      0.00000000	     22.27856530	    -11.69818824	    -20.24308444	     21.21549390	      0.37028022	      9.16326931	     -9.76639194	      0.00000000	     -0.03159829	     -0.38846772	      5.84269960	     -0.05868119	     -0.51666206	      6.20786833	     -0.05191284	     -0.94452041	      6.20786833	     -0.03611369	     -0.94452041	      5.11236215	     -0.02934217	     -0.79216337	      4.74719343	     -0.01805526	     -0.60173649	      4.38202470	     -0.22570345	     -4.39442451	     32.49534237	      0.00000000	      0.00000000	     -0.00000000	      0.00000000	      0.00000000	     -7.39978350	     -3.42608981	     -1.43674352	     25.70398496	     29.08002469	      0.00000000	      5.64699810	    -12.85879800	      6.10234046	    -36.39966482	     34.10609740	     27.04344660	      0.00000000	      5.64699810
      0.16666667	     -1.85846362	      0.91237698	    -29.64278086	     -1.72146710	      0.84160176	      0.30339966	     -8.07524381	     -6.87927514	     14.35574140	     24.20615402	      0.42247709	     14.37727246	     -3.35199820	      0.00000000	     22.36322323	    -11.68459458	    -19.98871311	     21.31175823	      0.37196035	      9.18146057	     -9.82063781	      0.00000000	     -0.03326701	     -0.37932086	      5.79771791	     -0.06178016	     -0.50449675	      6.16007528	     -0.05465437	     -0.92228074	      6.16007528	     -0.03802086	     -0.92228074	      5.07300317	     -0.03089174	     -0.77351110	      4.71064580	     -0.01900877	     -0.58756801	      4.34828843	     -0.23762292	     -4.29095345	     32.24516769	      0.00000000	      0.00000000	     -0.00000000	      0.00000000	      0.00000000	     -7.43290429	     -3.42517496	     -1.55394545	     25.80946823	     29.34400927	      0.00000000	      5.65148091	    -12.87451200	      6.16581704	    -36.45959927	     34.09646699	     27.38359771	      0.00000000	      5.65148091
      0.20000000	     -1.85280510	      0.98395252	    -29.91635319	     -1.72165939	      0.84160451	      0.30369904	     -7.92364296	     -6.96179190	     14.70614732	     24.33901239	      0.42479590	     14.45702655	     -3.34590681	      0.00000000	     22.25223870	    -11.73044910	    -20.39982583	     21.19803376	      0.36997548	      9.20441847	     -9.63055946	      0.00000000	     -0.03145073	     -0.38850749	      5.85074571	     -0.05840715	     -0.51671497	      6.21641732	     -0.05167040	     -0.94461712	      6.21641732	     -0.03594504	     -0.94461712	      5.11940250	     -0.02920515	     -0.79224448	      4.75373089	     -0.01797095	     -0.60179811	      4.38805928	     -0.22464940	     -4.39487447	     32.54009242	      0.00000000	      0.00000000	     -0.00000000	      0.00000000	      0.00000000	     -7.43364975	     -3.39945159	     -1.71921310	     25.75696810	     30.09174708	      0.00000000	      5.59301297	    -12.85857159	      6.11838292	    -36.57953075	     34.10183581	     28.30874885	      0.00000000	      5.59301297
      0.23333333	     -1.85127582	      0.98077816	    -30.00466025	     -1.72171583	      0.84160470	      0.30382637	     -7.92102685	     -6.90849711	     15.04720298	     24.34070681	      0.42482548	     14.38107543	     -3.76615665	      0.00000000	     22.21068189	    -11.82615029	    -20.77003270	     21.22462546	      0.37043960	      9.34098420	     -9.15969644	      0.00000000	     -0.03137610	     -0.38834965	      5.86815338	     -0.05826855	     -0.51650504	      6.23491297	     -0.05154779	     -0.94423334	      6.23491297	     -0.03585974	     -0.94423334	      5.13463421	     -0.02913585	     -0.79192261	      4.76787462	     -0.01792830	     -0.60155361	      4.40111504	     -0.22411634	     -4.39308892	     32.63690867	      0.00000000	      0.00000000	     -0.00000000	      0.00000000	      0.00000000	     -7.45122699	     -3.41049579	     -1.71510775	     25.81260997	     30.36613757	      0.00000000	      5.53465011	    -12.86149347	      6.12279842	    -36.63110527	     34.12438207	     28.66472579	      0.00000000	      5.53465011
      0.26666667	     -1.84945790	      0.99463751	    -29.92631472	     -1.72167245	      0.84159810	      0.30372328	     -7.91498394	     -6.96793775	     14.71218593	     24.34837713	      0.42495935	     14.47642596	     -3.37541111	      0.00000000	     22.23768893	    -11.75579662	    -20.58807432	     21.20241776	      0.37005200	      9.26996358	     -9.34333533	      0.00000000	     -0.03123389	     -0.38994486	      5.85232871	     -0.05800446	     -0.51862667	      6.21809926	     -0.05131416	     -0.94811194	      6.21809926	     -0.03569721	     -0.94811194	      5.12078762	     -0.02900379	     -0.79517556	      4.75501708	     -0.01784704	     -0.60402459	      4.38924654	     -0.22310055	     -4.41113427	     32.54889661	      0.00000000	      0.00000000	     -0.00000000	      0.00000000	      0.00000000	     -7.41727755	     -3.37871287	     -1.95338839	     25.71573431	     31.19114087	      0.00000000	      5.46890017	    -12.85233500	      6.12730419	    -36.78252753	     34.08410459	     29.67465379	      0.00000000	      5.46890017
